<mxfile host="65bd71144e">
    <diagram id="Ca8O8aaribWnciJg33ZA" name="Page-1">
        <mxGraphModel dx="1194" dy="567" grid="1" gridSize="10" guides="1" tooltips="1" connect="1" arrows="1" fold="1" page="1" pageScale="1" pageWidth="850" pageHeight="1100" background="#ffffff" math="0" shadow="0">
            <root>
                <mxCell id="0"/>
                <mxCell id="1" parent="0"/>
                <mxCell id="32" style="edgeStyle=none;html=1;entryX=0.5;entryY=0;entryDx=0;entryDy=0;startArrow=none;startFill=0;labelBackgroundColor=none;fontColor=#0a0a0a;labelBorderColor=none;strokeColor=#000000;" edge="1" parent="1" source="2" target="5">
                    <mxGeometry relative="1" as="geometry"/>
                </mxCell>
                <mxCell id="2" value="" style="ellipse;whiteSpace=wrap;html=1;strokeColor=none;labelBackgroundColor=none;fontColor=#0a0a0a;labelBorderColor=none;fillColor=#000000;" parent="1" vertex="1">
                    <mxGeometry x="371.25" y="130" width="27.5" height="30" as="geometry"/>
                </mxCell>
                <mxCell id="30" style="edgeStyle=none;html=1;entryX=0.5;entryY=0;entryDx=0;entryDy=0;startArrow=none;startFill=0;labelBackgroundColor=none;fontColor=#0a0a0a;labelBorderColor=none;strokeColor=#000000;" edge="1" parent="1" source="5" target="6">
                    <mxGeometry relative="1" as="geometry"/>
                </mxCell>
                <mxCell id="5" value="main()" style="rounded=1;whiteSpace=wrap;html=1;strokeColor=#000000;labelBackgroundColor=none;fontColor=#0a0a0a;labelBorderColor=none;fillColor=#FFFFFF;" parent="1" vertex="1">
                    <mxGeometry x="325" y="230" width="120" height="60" as="geometry"/>
                </mxCell>
                <mxCell id="31" style="edgeStyle=none;html=1;startArrow=none;startFill=0;labelBackgroundColor=none;fontColor=#0a0a0a;labelBorderColor=none;strokeColor=#000000;" edge="1" parent="1" source="6" target="7">
                    <mxGeometry relative="1" as="geometry"/>
                </mxCell>
                <mxCell id="6" value="create_ui()" style="rounded=1;whiteSpace=wrap;html=1;strokeColor=#000000;labelBackgroundColor=none;fontColor=#0a0a0a;labelBorderColor=none;fillColor=#FFFFFF;" parent="1" vertex="1">
                    <mxGeometry x="325" y="350" width="120" height="60" as="geometry"/>
                </mxCell>
                <mxCell id="12" style="edgeStyle=none;html=1;entryX=0.5;entryY=0;entryDx=0;entryDy=0;labelBackgroundColor=none;fontColor=#0a0a0a;labelBorderColor=none;strokeColor=#000000;" edge="1" parent="1" source="7" target="10">
                    <mxGeometry relative="1" as="geometry"/>
                </mxCell>
                <mxCell id="7" value="import_csv(&quot;top_50_actors.csv&quot;)" style="rounded=1;whiteSpace=wrap;html=1;strokeColor=#000000;labelBackgroundColor=none;fontColor=#0a0a0a;labelBorderColor=none;fillColor=#FFFFFF;" parent="1" vertex="1">
                    <mxGeometry x="290" y="480" width="190" height="60" as="geometry"/>
                </mxCell>
                <mxCell id="33" style="edgeStyle=none;html=1;startArrow=none;startFill=0;labelBackgroundColor=none;fontColor=#0a0a0a;labelBorderColor=none;strokeColor=#000000;" edge="1" parent="1" source="8" target="7">
                    <mxGeometry relative="1" as="geometry"/>
                </mxCell>
                <mxCell id="8" value="top_50_actors.csv" style="shape=document;whiteSpace=wrap;html=1;boundedLbl=1;labelBackgroundColor=none;fontColor=#0a0a0a;labelBorderColor=none;strokeColor=#000000;fillColor=#FFFFFF;" vertex="1" parent="1">
                    <mxGeometry x="50" y="470" width="120" height="80" as="geometry"/>
                </mxCell>
                <mxCell id="18" style="edgeStyle=none;html=1;entryX=0.5;entryY=0;entryDx=0;entryDy=0;startArrow=classic;startFill=1;labelBackgroundColor=none;fontColor=#0a0a0a;labelBorderColor=none;strokeColor=#000000;" edge="1" parent="1" source="9" target="14">
                    <mxGeometry relative="1" as="geometry"/>
                </mxCell>
                <mxCell id="20" style="edgeStyle=none;html=1;startArrow=classic;startFill=1;labelBackgroundColor=none;fontColor=#0a0a0a;labelBorderColor=none;strokeColor=#080808;" edge="1" parent="1" source="9" target="17">
                    <mxGeometry relative="1" as="geometry"/>
                </mxCell>
                <mxCell id="9" value="TMDB" style="shape=cylinder3;whiteSpace=wrap;html=1;boundedLbl=1;backgroundOutline=1;size=15;labelBackgroundColor=none;fontColor=#0a0a0a;labelBorderColor=none;strokeColor=#000000;fillColor=#FFFFFF;" vertex="1" parent="1">
                    <mxGeometry x="790" y="610" width="60" height="80" as="geometry"/>
                </mxCell>
                <mxCell id="13" style="edgeStyle=none;html=1;entryX=0.5;entryY=0;entryDx=0;entryDy=0;startArrow=none;labelBackgroundColor=none;fontColor=#0a0a0a;labelBorderColor=none;strokeColor=#000000;" edge="1" parent="1" source="37" target="11">
                    <mxGeometry relative="1" as="geometry"/>
                </mxCell>
                <mxCell id="10" value="update_data" style="rounded=1;whiteSpace=wrap;html=1;labelBackgroundColor=none;fontColor=#0a0a0a;labelBorderColor=none;strokeColor=#000000;fillColor=#FFFFFF;" vertex="1" parent="1">
                    <mxGeometry x="325" y="580" width="120" height="40" as="geometry"/>
                </mxCell>
                <mxCell id="15" value="false" style="edgeStyle=none;html=1;labelBackgroundColor=none;fontColor=#0a0a0a;labelBorderColor=none;strokeColor=#000000;" edge="1" parent="1" source="11" target="14">
                    <mxGeometry relative="1" as="geometry"/>
                </mxCell>
                <mxCell id="26" value="true" style="edgeStyle=none;html=1;startArrow=none;startFill=0;labelBackgroundColor=none;fontColor=#0a0a0a;labelBorderColor=none;strokeColor=#000000;" edge="1" parent="1" source="11" target="25">
                    <mxGeometry relative="1" as="geometry"/>
                </mxCell>
                <mxCell id="11" value="last actor reached ?" style="rhombus;whiteSpace=wrap;html=1;labelBackgroundColor=none;fontColor=#0a0a0a;labelBorderColor=none;strokeColor=#000000;fillColor=#FFFFFF;" vertex="1" parent="1">
                    <mxGeometry x="345" y="720" width="80" height="80" as="geometry"/>
                </mxCell>
                <mxCell id="21" style="edgeStyle=none;html=1;entryX=0.5;entryY=0;entryDx=0;entryDy=0;startArrow=none;startFill=0;labelBackgroundColor=none;fontColor=#0a0a0a;labelBorderColor=none;strokeColor=#000000;" edge="1" parent="1" source="14" target="19">
                    <mxGeometry relative="1" as="geometry">
                        <Array as="points">
                            <mxPoint x="720" y="760"/>
                        </Array>
                    </mxGeometry>
                </mxCell>
                <mxCell id="14" value="get actor by name" style="rounded=1;whiteSpace=wrap;html=1;labelBackgroundColor=none;fontColor=#0a0a0a;labelBorderColor=none;strokeColor=#000000;fillColor=#FFFFFF;" vertex="1" parent="1">
                    <mxGeometry x="500" y="730" width="120" height="60" as="geometry"/>
                </mxCell>
                <mxCell id="23" style="edgeStyle=none;html=1;entryX=0.5;entryY=1;entryDx=0;entryDy=0;startArrow=none;startFill=0;labelBackgroundColor=none;fontColor=#0a0a0a;labelBorderColor=none;" edge="1" parent="1" source="17" target="19">
                    <mxGeometry relative="1" as="geometry">
                        <Array as="points">
                            <mxPoint x="920" y="880"/>
                            <mxPoint x="720" y="880"/>
                        </Array>
                    </mxGeometry>
                </mxCell>
                <mxCell id="17" value="get movie data" style="rounded=1;whiteSpace=wrap;html=1;labelBackgroundColor=none;fontColor=#0a0a0a;labelBorderColor=none;strokeColor=#000000;fillColor=#FFFFFF;" vertex="1" parent="1">
                    <mxGeometry x="860" y="790" width="120" height="60" as="geometry"/>
                </mxCell>
                <mxCell id="22" style="edgeStyle=none;html=1;startArrow=none;startFill=0;labelBackgroundColor=none;fontColor=#0a0a0a;labelBorderColor=none;strokeColor=#000000;" edge="1" parent="1" source="19" target="17">
                    <mxGeometry relative="1" as="geometry"/>
                </mxCell>
                <mxCell id="34" value="false" style="edgeLabel;html=1;align=center;verticalAlign=middle;resizable=0;points=[];labelBackgroundColor=none;fontColor=#0a0a0a;labelBorderColor=none;" vertex="1" connectable="0" parent="22">
                    <mxGeometry x="0.26" y="1" relative="1" as="geometry">
                        <mxPoint as="offset"/>
                    </mxGeometry>
                </mxCell>
                <mxCell id="24" style="edgeStyle=none;html=1;entryX=0.5;entryY=1;entryDx=0;entryDy=0;startArrow=none;startFill=0;labelBackgroundColor=none;fontColor=#0a0a0a;labelBorderColor=none;strokeColor=#000000;" edge="1" parent="1" source="19" target="11">
                    <mxGeometry relative="1" as="geometry">
                        <Array as="points">
                            <mxPoint x="385" y="820"/>
                        </Array>
                    </mxGeometry>
                </mxCell>
                <mxCell id="35" value="true" style="edgeLabel;html=1;align=center;verticalAlign=middle;resizable=0;points=[];labelBackgroundColor=none;fontColor=#0a0a0a;labelBorderColor=none;" vertex="1" connectable="0" parent="24">
                    <mxGeometry x="0.0603" y="2" relative="1" as="geometry">
                        <mxPoint as="offset"/>
                    </mxGeometry>
                </mxCell>
                <mxCell id="19" value="last movie reached?" style="rhombus;whiteSpace=wrap;html=1;labelBackgroundColor=none;fontColor=#0a0a0a;labelBorderColor=none;strokeColor=#000000;fillColor=#FFFFFF;" vertex="1" parent="1">
                    <mxGeometry x="680" y="780" width="80" height="80" as="geometry"/>
                </mxCell>
                <mxCell id="29" style="edgeStyle=none;html=1;entryX=1;entryY=0.5;entryDx=0;entryDy=0;startArrow=none;startFill=0;labelBackgroundColor=none;fontColor=#0a0a0a;labelBorderColor=none;strokeColor=#000000;" edge="1" parent="1" source="25" target="28">
                    <mxGeometry relative="1" as="geometry"/>
                </mxCell>
                <mxCell id="25" value="generate ui" style="rounded=1;whiteSpace=wrap;html=1;labelBackgroundColor=none;fontColor=#0a0a0a;labelBorderColor=none;strokeColor=#000000;fillColor=#FFFFFF;" vertex="1" parent="1">
                    <mxGeometry x="160" y="730" width="120" height="60" as="geometry"/>
                </mxCell>
                <mxCell id="27" value="" style="ellipse;whiteSpace=wrap;html=1;labelBackgroundColor=none;fontColor=#0a0a0a;labelBorderColor=none;fillColor=#000000;" vertex="1" parent="1">
                    <mxGeometry x="50" y="750" width="20" height="20" as="geometry"/>
                </mxCell>
                <mxCell id="28" value="" style="ellipse;whiteSpace=wrap;html=1;fillColor=none;labelBackgroundColor=none;fontColor=#0a0a0a;labelBorderColor=none;strokeColor=#000000;strokeWidth=7;" vertex="1" parent="1">
                    <mxGeometry x="45" y="745" width="30" height="30" as="geometry"/>
                </mxCell>
                <mxCell id="36" value="" style="edgeStyle=none;html=1;entryX=0.5;entryY=0;entryDx=0;entryDy=0;endArrow=none;startArrow=classic;startFill=1;labelBackgroundColor=none;fontColor=#0a0a0a;labelBorderColor=none;strokeColor=#000000;" edge="1" parent="1" source="10" target="37">
                    <mxGeometry relative="1" as="geometry">
                        <mxPoint x="385" y="620" as="sourcePoint"/>
                        <mxPoint x="385" y="720" as="targetPoint"/>
                    </mxGeometry>
                </mxCell>
                <mxCell id="37" value="iterate over each actor" style="rounded=1;whiteSpace=wrap;html=1;fillColor=#FFFFFF;labelBackgroundColor=none;fontColor=#0a0a0a;labelBorderColor=none;strokeColor=#000000;" vertex="1" parent="1">
                    <mxGeometry x="325" y="650" width="120" height="40" as="geometry"/>
                </mxCell>
            </root>
        </mxGraphModel>
    </diagram>
</mxfile>